<?xml version="1.0" standalone="no"?>
<!DOCTYPE svg PUBLIC "-//W3C//DTD SVG 20010904//EN"
 "http://www.w3.org/TR/2001/REC-SVG-20010904/DTD/svg10.dtd">
<svg version="1.0" xmlns="http://www.w3.org/2000/svg"
 width="282.000000pt" height="95.000000pt" viewBox="0 0 282.000000 95.000000"
 preserveAspectRatio="xMidYMid meet">

<g transform="translate(0.000000,95.000000) scale(0.100000,-0.100000)"
fill="#000000" stroke="none">
<path d="M354 743 c-51 -25 -52 -27 -63 -84 -7 -33 -14 -59 -16 -59 -8 0 -45
79 -45 95 0 8 9 20 20 27 27 17 25 27 -2 21 -53 -13 -61 -47 -29 -112 20 -37
119 -136 170 -169 14 -9 28 -19 31 -23 12 -15 161 -90 217 -108 78 -26 133
-27 164 -2 20 16 22 22 12 52 -10 31 -11 31 -12 8 -1 -37 -19 -49 -71 -48 -33
2 -37 3 -15 6 33 5 75 39 75 60 0 20 -10 16 -32 -12 -16 -21 -28 -25 -68 -25
l-49 0 -12 61 c-11 58 -25 83 -50 91 -7 2 -9 12 -4 27 4 15 25 31 61 47 l54
24 47 -28 c44 -26 49 -33 60 -82 8 -39 9 -58 1 -67 -16 -20 0 -29 18 -12 13
14 13 25 3 83 l-13 68 -59 30 -59 29 -54 -22 c-30 -12 -56 -20 -59 -18 -2 2
-10 29 -17 59 -13 51 -18 57 -64 82 -60 33 -75 33 -140 1z m121 -17 c49 -24
52 -28 63 -78 16 -70 7 -102 -24 -94 -14 4 -45 -4 -80 -19 -31 -14 -60 -25
-64 -25 -5 0 -23 18 -40 40 -31 40 -31 40 -19 96 12 51 16 57 58 79 25 13 48
24 50 25 2 0 27 -11 56 -24z m69 -214 c46 -25 51 -32 63 -81 8 -29 12 -56 9
-59 -14 -14 -220 103 -210 119 5 9 74 48 84 48 3 0 27 -12 54 -27z"/>
<path d="M2381 691 c61 -62 86 -98 128 -180 28 -57 51 -111 51 -120 0 -10 -17
-25 -44 -38 -24 -12 -60 -36 -80 -53 l-36 -32 -47 16 c-27 8 -73 18 -103 21
l-55 6 66 -23 c37 -13 82 -36 102 -51 20 -15 39 -27 42 -27 4 0 31 22 61 49
29 27 74 57 99 66 34 13 45 23 45 39 0 12 -22 66 -49 122 -54 110 -147 222
-218 261 -34 20 -30 13 38 -56z"/>
<path d="M1017 624 c-15 -9 -37 -14 -49 -12 -12 2 -23 -2 -25 -8 -6 -17 25
-26 48 -14 26 14 24 3 -7 -37 -18 -24 -32 -33 -45 -30 -22 6 -26 -11 -4 -19
12 -5 10 -12 -10 -42 -27 -40 -31 -52 -15 -52 6 0 23 20 38 45 26 43 29 45 75
45 l48 0 -27 -45 c-18 -31 -22 -45 -12 -45 7 0 37 39 67 88 30 48 61 97 69
110 12 19 12 22 0 22 -8 0 -29 -22 -46 -50 -30 -48 -33 -50 -77 -50 -25 0 -45
3 -45 6 0 3 14 25 30 49 33 48 29 61 -13 39z"/>
<path d="M1506 588 c-18 -29 -45 -77 -60 -105 -19 -38 -32 -53 -47 -53 -20 0
-20 1 5 44 30 52 32 59 10 54 -9 -2 -23 -21 -31 -43 -25 -69 -24 -70 39 -72
55 -1 59 0 93 38 42 47 46 79 10 79 -32 0 -31 2 5 61 16 27 25 49 20 49 -6 0
-25 -24 -44 -52z m24 -87 c0 -16 -51 -71 -66 -71 -18 0 -18 14 1 50 11 21 23
30 40 30 14 0 25 -4 25 -9z"/>
<path d="M1756 599 c-19 -23 -43 -63 -52 -90 -19 -52 -45 -84 -64 -77 -7 2 -2
21 13 51 13 26 21 47 17 47 -4 0 -26 -23 -50 -52 -43 -50 -68 -52 -35 -2 9 14
14 33 12 42 -2 11 -13 -2 -30 -37 -14 -30 -24 -58 -21 -63 9 -14 27 -9 51 14
l23 21 0 -21 c0 -25 28 -30 49 -9 11 10 14 10 18 0 9 -25 83 -7 83 19 0 9 -3
9 -12 0 -14 -14 -44 -16 -52 -3 -3 5 8 26 26 47 43 55 88 126 88 141 0 25 -29
13 -64 -28z m9 -45 c-22 -31 -41 -51 -43 -45 -4 13 19 53 51 88 36 41 31 14
-8 -43z"/>
<path d="M2125 613 c-50 -52 -81 -131 -76 -191 1 -16 103 -11 124 6 12 10 16
9 21 -3 12 -32 51 -17 89 35 48 65 79 69 42 7 -38 -65 -31 -67 30 -7 60 59 66
60 34 6 -22 -38 -19 -56 10 -56 23 0 58 26 48 36 -4 4 -13 2 -19 -4 -7 -7 -18
-12 -26 -12 -9 0 -5 15 15 49 15 28 25 53 21 56 -8 8 -65 -21 -72 -37 -3 -7
-3 -3 0 10 7 28 -20 30 -49 5 -19 -17 -20 -17 -14 0 13 34 -11 16 -41 -33 -30
-48 -52 -64 -52 -37 1 6 7 23 15 37 21 37 18 47 -14 45 -39 -2 -77 -28 -96
-65 -9 -18 -23 -30 -35 -30 -30 0 -25 14 29 83 71 91 87 127 56 127 -8 0 -26
-12 -40 -27z m35 1 c0 -11 -75 -114 -83 -114 -10 0 -5 10 37 72 28 43 46 59
46 42z m50 -111 c0 -10 -62 -73 -72 -73 -15 0 -8 18 18 49 23 28 54 42 54 24z"/>
<path d="M1886 529 c-36 -56 -66 -105 -66 -110 0 -26 25 0 75 78 31 48 64 97
72 110 14 20 14 23 0 23 -8 0 -45 -46 -81 -101z"/>
<path d="M1446 581 c-4 -7 -5 -15 -2 -18 9 -9 19 4 14 18 -4 11 -6 11 -12 0z"/>
<path d="M1304 526 c-25 -11 -44 -33 -44 -51 0 -2 16 -9 35 -15 19 -6 33 -16
30 -21 -8 -12 -52 -12 -60 1 -4 6 -13 5 -25 -2 -29 -19 -34 -3 -13 41 l20 40
-24 6 c-28 7 -78 -17 -93 -44 -17 -33 -13 -71 9 -71 10 0 24 7 31 15 16 19 30
19 30 1 0 -22 103 -20 131 3 27 22 19 37 -23 46 l-32 7 23 19 c15 12 31 17 47
13 18 -5 24 -2 24 10 0 19 -24 20 -66 2z m-95 -33 c-20 -25 -63 -62 -72 -63
-4 0 -1 13 8 30 16 30 40 49 64 50 11 0 11 -3 0 -17z"/>
<path d="M1962 520 c-38 -23 -40 -51 -4 -60 33 -7 27 -25 -8 -25 -18 0 -30 -5
-30 -12 0 -16 44 -17 71 -3 28 16 23 40 -11 53 -16 6 -30 15 -30 19 0 8 39 22
64 23 11 0 21 6 23 13 7 19 -38 14 -75 -8z"/>
<path d="M356 434 c-4 -19 -9 -41 -12 -48 -3 -7 14 -36 36 -64 l42 -52 67 0
c59 0 71 3 90 24 13 14 20 30 16 36 -4 7 -14 2 -27 -15 -17 -21 -27 -25 -77
-25 -55 0 -58 1 -90 43 -28 37 -32 47 -26 84 7 51 -10 67 -19 17z"/>
</g>
</svg>
